<svg viewBox="0 0 100 100"><path d="M15.654 37.218l21.998 -0.917c0.356
  1.503 1.472 2.71 2.922 3.188l2.798 27.568 -28.033 -29.115c0.128 -0.228 0.234
  -0.471 0.318 -0.72zm-0.028 -2.913a4.379 4.379 0 0 0 -0.724 -1.285l10.876
  -12.616a4.379 4.379 0 0 0 3.337 0.368l9.282 11.88c-0.165 0.225 -0.312 0.468
  -0.434 0.72l-22.338 0.929zm-2.48 5.595l26.763 27.796 -31.014 -8.892v-0.059c0
  -1.51 -0.755 -2.841 -1.906 -3.64l4.182 -14.88a4.426 4.426 0 0 0 1.977
  -0.321zm44.875 -22.534l4.972 28.264a3.92 3.92 0 0 0 -0.327 0.234l-16.365
  -9.762a4.435 4.435 0 0 0 -0.702 -3.328l11.708 -15.538c0.231 0.062 0.471 0.106
  0.714 0.131zm2.854 -0.692a4.429 4.429 0 0 0 1.073 -0.986l21.031 13.761a4.435
  4.435 0 0 0 0.128 3.652l-15.417 12.482a4.351 4.351 0 0 0 -1.84 -0.627l-4.975
  -28.282zm-17.36 22.752c0.48 -0.181 0.923 -0.446 1.307 -0.773l16.253
  9.694a4.429 4.429 0 0 0 0.73 3.615l-14.169 15.195a4.401 4.401 0 0 0 -1.35
  -0.44l-2.77 -27.29zM7.869 61.573l33.319 9.553c0.003 0.324 0.041 0.642 0.109
  0.948l-24.549 11.478a4.398 4.398 0 0 0 -2.879 -1.088l-6.596 -20.298a4.647
  4.647 0 0 0 0.596 -0.593zm35.343 -30.534a4.429 4.429 0 0 0 -2.37 -0.044l-9.326
  -11.939c0.493 -0.702 0.786 -1.553 0.802 -2.47l22.088 -1.871c0.128 0.299 0.29
  0.58 0.477 0.839l-11.668 15.482zm-11.883 -17.313a4.423 4.423 0 0 0 -7.451
  4.635l-11.334 13.149a4.423 4.423 0 0 0 -3.914 7.688L4.379 54.316a4.423 4.423 0
  0 0 0.097 8.851h0.028l6.584 20.264a4.423 4.423 0 1 0 7.105 2.66l24.667
  -11.531a4.423 4.423 0 0 0 6.796 -5.249l14.609 -15.666a4.382 4.382 0 0 0 3.768
  -0.749l23.002 8.773a4.423 4.423 0 1 0 4.903 -3.961l-5.561 -23.648a4.423 4.423
  0 0 0 -5.433 -6.815l-22.063 -14.434a4.423 4.423 0 0 0 -8.683 -1.026L31.323
  13.723zm38.353 36.647a4.382 4.382 0 0 0 -0.137 -2.501l15.694 -12.71a4.419
  4.419 0 0 0 2.489 0.346l5.371 22.84a4.285 4.285 0 0 0 -0.808 0.649l-22.606
  -8.624z" p-id="12584" fill="currentColor"/></svg>